{"accessors" : [{"bufferView" : 0, "byteOffset" : 0, "componentType" : 5126, "normalized" : false, "count" : 45, "type" : "SCALAR", "max" : [1.8333333333333335], "min" : [0]}, {"bufferView" : 0, "byteOffset" : 180, "componentType" : 5126, "normalized" : false, "count" : 45, "type" : "VEC3", "max" : [8.005692481994629, 95.46691131591797, 6.409834861755371], "min" : [-11.159059524536133, 89.03196716308594, -8.284370422363281]}], "animations" : [{"channels" : [{"sampler" : 0, "target" : {"node" : -1, "path" : "translation"}}], "samplers" : [{"input" : 0, "interpolation" : "CUBICSPLINE", "output" : 1}], "name" : "mixamo.com"}], "asset" : {"generator" : "Aspose.3D 24.2.0", "version" : "2.0"}, "buffers" : [{"uri" : "buffer.bin", "byteLength" : 724}], "bufferViews" : [{"buffer" : 0, "byteOffset" : 0, "byteLength" : 720}], "scene" : 0, "scenes" : [{}]}